<svg xmlns="http://www.w3.org/2000/svg" width="24" height="24" viewBox="0 0 24 24"><path d="M12.75,13.75l-.147.735a.75.75,0,0,0,.818-.4Zm-7-7-.335-.671a.75.75,0,0,0-.4.818ZM6.1,6.573l.335.671h0Zm.963-2.532.7-.279h0ZM6.253,2.007l-.7.279h0Zm11.24,11.24-.279.7h0Zm-2.034-.814.279-.7h0Zm-2.532.962.671.335h0ZM14,8.75a.75.75,0,0,0,1.5,0Zm.446-1.531.693-.287h0ZM12.281,5.054l.287-.693h0ZM10.75,4a.75.75,0,0,0,0,1.5ZM18,8.75a.75.75,0,0,0,1.5,0Zm.141-3.061.693-.287h0Zm-4.33-4.33L14.1.666h0ZM10.75,0a.75.75,0,0,0,0,1.5ZM18,15.1V16.75h1.5V15.1ZM2.75,1.5H4.4V0H2.75Zm10,12.25c.147-.735.147-.735.148-.735h0l-.014,0L12.816,13c-.061-.015-.156-.039-.276-.075a9,9,0,0,1-.994-.361A8.865,8.865,0,0,1,8.78,10.72L7.72,11.78a10.367,10.367,0,0,0,3.235,2.159,10.465,10.465,0,0,0,1.162.421c.145.043.262.073.345.093l.1.023.029.006.009,0h0s0,0,.148-.735ZM8.78,10.72A8.867,8.867,0,0,1,6.939,7.955a8.99,8.99,0,0,1-.36-.994c-.035-.121-.06-.215-.075-.276-.007-.031-.013-.053-.016-.067l0-.014v0h0L5.75,6.75,5.015,6.9h0v0l0,.009.006.029c.005.024.013.057.023.1.02.083.051.2.093.345a10.488,10.488,0,0,0,.421,1.162A10.365,10.365,0,0,0,7.72,11.78Zm-2.695-3.3.354-.177L5.769,5.9l-.354.177ZM7.763,3.763,6.949,1.729l-1.393.557L6.37,4.32Zm10.008,8.788-2.034-.814L15.18,13.13l2.034.814Zm-5.515.51-.177.354,1.342.671.177-.354Zm3.481-1.324a2.75,2.75,0,0,0-3.481,1.323l1.342.671a1.25,1.25,0,0,1,1.582-.6Zm-9.3-4.493A2.75,2.75,0,0,0,7.763,3.763L6.37,4.32a1.25,1.25,0,0,1-.6,1.582ZM4.4,1.5a1.25,1.25,0,0,1,1.161.786l1.393-.557A2.75,2.75,0,0,0,4.4,0ZM19.5,15.1a2.75,2.75,0,0,0-1.729-2.553l-.557,1.393A1.25,1.25,0,0,1,18,15.1ZM16.75,18A15.25,15.25,0,0,1,1.5,2.75H0A16.75,16.75,0,0,0,16.75,19.5Zm0,1.5a2.75,2.75,0,0,0,2.75-2.75H18A1.25,1.25,0,0,1,16.75,18ZM1.5,2.75A1.25,1.25,0,0,1,2.75,1.5V0A2.75,2.75,0,0,0,0,2.75Zm14,6a4.75,4.75,0,0,0-.362-1.818l-1.386.574A3.251,3.251,0,0,1,14,8.75Zm-.362-1.818a4.751,4.751,0,0,0-1.03-1.541L13.048,6.452a3.249,3.249,0,0,1,.7,1.054Zm-1.03-1.541a4.751,4.751,0,0,0-1.541-1.03l-.574,1.386a3.25,3.25,0,0,1,1.054.7Zm-1.541-1.03A4.749,4.749,0,0,0,10.75,4V5.5a3.25,3.25,0,0,1,1.244.247ZM19.5,8.75A8.749,8.749,0,0,0,18.834,5.4l-1.386.574A7.249,7.249,0,0,1,18,8.75ZM18.834,5.4a8.75,8.75,0,0,0-1.9-2.839L15.877,3.623a7.25,7.25,0,0,1,1.572,2.352Zm-1.9-2.839A8.75,8.75,0,0,0,14.1.666l-.574,1.386a7.25,7.25,0,0,1,2.352,1.572ZM14.1.666A8.75,8.75,0,0,0,10.75,0V1.5a7.251,7.251,0,0,1,2.774.552Z" transform="translate(2.25 2.25)" fill="#a35151"/></svg>