<svg xmlns="http://www.w3.org/2000/svg" width="20.534" height="20.534" viewBox="0 0 20.534 20.534"><defs><style>.a{fill:#777474;}</style></defs><path class="a" d="M8.974,5.244,6.2.623A1.283,1.283,0,0,0,5.1,0H.643A.642.642,0,0,0,.117,1.01L4.58,7.385A8.3,8.3,0,0,1,8.974,5.244ZM19.891,0H15.434a1.283,1.283,0,0,0-1.1.623L11.561,5.244a8.3,8.3,0,0,1,4.394,2.141L20.417,1.01A.642.642,0,0,0,19.891,0ZM10.267,6.417a7.059,7.059,0,1,0,7.059,7.059A7.059,7.059,0,0,0,10.267,6.417Zm3.711,6.307-1.521,1.482.36,2.094a.461.461,0,0,1-.668.485L10.267,15.8l-1.881.989a.46.46,0,0,1-.668-.485l.36-2.094L6.557,12.724a.461.461,0,0,1,.255-.786l2.1-.306.94-1.906a.461.461,0,0,1,.827,0l.94,1.906,2.1.306a.461.461,0,0,1,.255.786Z" transform="translate(0)"/></svg>